<svg width="61" height="16" viewBox="0 0 61 16" fill="none" xmlns="http://www.w3.org/2000/svg">
<g clip-path="url(#clip0_315_12643)">
<path d="M42.7423 11.5546C42.0748 11.555 41.4189 11.3789 40.8406 11.0439C40.2623 10.709 39.782 10.2271 39.448 9.6466C39.114 9.06612 38.938 8.40756 38.9378 7.73713C38.9376 7.0667 39.1131 6.40802 39.4468 5.82733C39.7804 5.24665 40.2604 4.76441 40.8385 4.42911C41.4166 4.09381 42.0724 3.91727 42.7399 3.91724C43.4075 3.9172 44.0633 4.09367 44.6414 4.42891C45.2195 4.76415 45.6996 5.24633 46.0333 5.82699L46.4694 6.59122L43.1801 8.50014C42.9789 8.61674 42.7399 8.64831 42.5155 8.5879C42.2912 8.52749 42.0999 8.38005 41.9838 8.17802C41.8677 7.97599 41.8363 7.73591 41.8965 7.5106C41.9566 7.2853 42.1034 7.09322 42.3046 6.97662L43.9075 6.04886C43.5682 5.81263 43.1658 5.68477 42.7529 5.68202C42.3401 5.67926 41.936 5.80173 41.5936 6.03341C41.2512 6.26508 40.9864 6.59517 40.8339 6.98047C40.6814 7.36577 40.6482 7.78835 40.7387 8.19289C40.8293 8.59744 41.0393 8.96511 41.3413 9.2478C41.6434 9.53049 42.0233 9.71502 42.4315 9.77726C42.8397 9.8395 43.2571 9.77653 43.6291 9.59661C44.001 9.41669 44.3103 9.12819 44.5163 8.76886C44.6349 8.57154 44.8259 8.42884 45.0482 8.37145C45.2705 8.31405 45.5064 8.34654 45.7051 8.46192C45.9038 8.57731 46.0495 8.76638 46.1108 8.9885C46.1722 9.21062 46.1444 9.44806 46.0333 9.64978C45.698 10.2282 45.2178 10.7083 44.6405 11.0425C44.0631 11.3767 43.4087 11.5532 42.7423 11.5546V11.5546Z" fill="#F39200"/>
<path d="M37.6407 11.2612C37.5447 11.3618 37.429 11.4414 37.3008 11.4947C37.1726 11.548 37.0348 11.574 36.8961 11.571C36.7561 11.5728 36.6171 11.5464 36.4875 11.4931C36.3579 11.4399 36.2403 11.361 36.1417 11.2612C36.0399 11.1648 35.9593 11.0481 35.9049 10.9186C35.8505 10.7892 35.8236 10.6498 35.8258 10.5093V6.91083C35.8279 6.76172 35.8005 6.61368 35.7451 6.4753C35.6898 6.33692 35.6076 6.21095 35.5035 6.10469C35.4006 5.99497 35.2759 5.9082 35.1375 5.85002C34.999 5.79183 34.85 5.76353 34.6999 5.76695C34.5498 5.7635 34.4005 5.79087 34.2612 5.84739C34.1219 5.90391 33.9955 5.98839 33.8899 6.09565C33.784 6.19951 33.7003 6.32401 33.6441 6.4615C33.5878 6.59899 33.5601 6.74658 33.5626 6.89522V11.4453H31.49V6.89686C31.4929 6.74407 31.4646 6.5923 31.4068 6.45095C31.3489 6.30961 31.2628 6.18169 31.1537 6.07511C31.0499 5.96667 30.925 5.88076 30.7868 5.82267C30.6486 5.76458 30.5 5.73555 30.3502 5.73737C30.1993 5.73418 30.0492 5.76116 29.9087 5.81674C29.7683 5.87233 29.6402 5.9554 29.532 6.06114C29.4226 6.16436 29.3361 6.28957 29.2782 6.42862C29.2203 6.56766 29.1921 6.71741 29.1957 6.8681V11.4453H27.0969V5.00848C27.0887 4.86506 27.1108 4.72153 27.1618 4.58729C27.2127 4.45306 27.2913 4.33116 27.3924 4.22958C27.4936 4.128 27.615 4.04905 27.7486 3.99791C27.8823 3.94676 28.0252 3.92457 28.168 3.9328C28.4408 3.9328 28.642 4.01799 28.7719 4.18837C28.9049 4.37147 28.9814 4.58978 28.992 4.81619C29.197 4.51729 29.4801 4.28099 29.8102 4.13331C30.1356 3.98393 30.4891 3.90658 30.8469 3.90651C31.2629 3.90522 31.6738 3.99938 32.0481 4.18179C32.4192 4.35888 32.7383 4.62955 32.9743 4.96739C33.2477 4.638 33.5929 4.37622 33.9832 4.20234C34.378 4.02391 34.8062 3.9323 35.2392 3.93363C35.6038 3.93043 35.9663 3.99105 36.3102 4.11277C36.6281 4.2257 36.92 4.40177 37.1686 4.63047C37.4141 4.85808 37.6092 5.13497 37.7413 5.44318C37.8828 5.78115 37.953 6.14489 37.9475 6.51146V10.5093C37.9492 10.6489 37.9229 10.7874 37.8702 10.9166C37.8175 11.0457 37.7394 11.1629 37.6407 11.2612Z" fill="#F39200"/>
<path d="M18.0277 8.44489C17.9281 8.38708 17.8182 8.34954 17.7042 8.33441C17.5902 8.31928 17.4744 8.32684 17.3633 8.35668C17.2522 8.38652 17.148 8.43804 17.0568 8.5083C16.9655 8.57857 16.8889 8.6662 16.8314 8.76619C16.6061 9.15955 16.2578 9.4672 15.8406 9.64136C15.4233 9.81552 14.9605 9.84646 14.524 9.72936C14.0874 9.61227 13.7016 9.35369 13.4264 8.99379C13.1512 8.63388 13.002 8.19279 13.002 7.739C13.002 7.28521 13.1512 6.84412 13.4264 6.48421C13.7016 6.12431 14.0874 5.86573 14.524 5.74864C14.9605 5.63154 15.4233 5.66248 15.8406 5.83664C16.2578 6.01081 16.6061 6.31845 16.8314 6.71181L18.3476 5.83089C17.9292 5.10281 17.2832 4.53374 16.5099 4.21196C15.7366 3.89018 14.8791 3.83367 14.0706 4.0512C13.262 4.26873 12.5475 4.74814 12.0379 5.41506C11.5284 6.08199 11.2521 6.89916 11.2521 7.73982C11.2521 8.58048 11.5284 9.39765 12.0379 10.0646C12.5475 10.7315 13.262 11.2109 14.0706 11.4284C14.8791 11.646 15.7366 11.5895 16.5099 11.2677C17.2832 10.9459 17.9292 10.3768 18.3476 9.64875C18.4054 9.54864 18.443 9.43805 18.4582 9.32333C18.4735 9.20861 18.466 9.09199 18.4363 8.98017C18.4066 8.86835 18.3552 8.76351 18.2851 8.67166C18.2149 8.5798 18.1275 8.50274 18.0277 8.44489V8.44489Z" fill="#F39200"/>
<path d="M22.6515 11.5315C21.9045 11.5315 21.1742 11.309 20.5531 10.8922C19.932 10.4754 19.4479 9.88299 19.162 9.18987C18.8761 8.49675 18.8014 7.73406 18.9471 6.99826C19.0928 6.26245 19.4525 5.58656 19.9808 5.05607C20.509 4.52558 21.182 4.16432 21.9146 4.01796C22.6473 3.87159 23.4067 3.94671 24.0969 4.23381C24.787 4.52091 25.3769 5.00709 25.7919 5.63088C26.2069 6.25467 26.4284 6.98805 26.4284 7.73827C26.4271 8.74389 26.0288 9.70795 25.3207 10.419C24.6127 11.1301 23.6528 11.5302 22.6515 11.5315V11.5315ZM22.6515 5.70444C22.2509 5.70444 21.8594 5.82372 21.5264 6.0472C21.1933 6.27068 20.9338 6.58832 20.7805 6.95996C20.6272 7.33159 20.5871 7.74053 20.6653 8.13505C20.7434 8.52958 20.9363 8.89197 21.2195 9.17641C21.5027 9.46085 21.8636 9.65455 22.2564 9.73303C22.6492 9.8115 23.0564 9.77123 23.4265 9.61729C23.7965 9.46336 24.1128 9.20267 24.3353 8.86821C24.5578 8.53375 24.6766 8.14053 24.6766 7.73827C24.6759 7.19907 24.4624 6.68213 24.0827 6.30086C23.7031 5.91958 23.1884 5.70509 22.6515 5.70444V5.70444Z" fill="#F39200"/>
<path d="M52.9711 3.84034e-07C52.856 -0.000107595 52.7421 0.0225556 52.6358 0.066695C52.5294 0.110834 52.4328 0.175584 52.3514 0.257243C52.2701 0.338902 52.2055 0.435869 52.1614 0.542601C52.1174 0.649333 52.0947 0.763737 52.0947 0.879274V11.5711H53.8466V0.879274C53.8466 0.763806 53.8239 0.649469 53.7799 0.542791C53.7359 0.436112 53.6714 0.339182 53.5901 0.257534C53.5088 0.175886 53.4123 0.111118 53.3061 0.0669307C53.1999 0.022743 53.086 3.84034e-07 52.9711 3.84034e-07V3.84034e-07Z" fill="#F39200"/>
<path d="M50.5361 3.91964C49.9232 3.92167 49.3183 4.05944 48.7646 4.32312C48.6627 4.16297 48.5118 4.04037 48.3346 3.97372C48.1574 3.90708 47.9635 3.9 47.7819 3.95355C47.6004 4.00711 47.441 4.11839 47.3278 4.27069C47.2147 4.42298 47.1538 4.60806 47.1543 4.79809V11.571H48.9053V6.54185C48.9986 6.31751 49.3627 5.70695 50.5794 5.67654C50.6944 5.67368 50.8077 5.64811 50.9128 5.60128C51.0179 5.55445 51.1129 5.48728 51.1921 5.40361C51.2714 5.31994 51.3335 5.22141 51.3749 5.11363C51.4163 5.00586 51.4361 4.89096 51.4332 4.77549C51.4304 4.66002 51.4049 4.54625 51.3583 4.44067C51.3117 4.33508 51.2448 4.23975 51.1615 4.16013C51.0782 4.0805 50.9801 4.01814 50.8727 3.97659C50.7654 3.93505 50.651 3.91513 50.5361 3.91799V3.91964Z" fill="#F39200"/>
<path d="M60.1289 3.95753C60.0189 3.92371 59.9032 3.91204 59.7886 3.9232C59.6741 3.93436 59.5628 3.96813 59.4612 4.02256C59.3597 4.07699 59.2698 4.15102 59.1968 4.24041C59.1238 4.32979 59.0691 4.43277 59.0358 4.54343L57.6333 9.17729L56.0304 3.8811L54.3547 4.39306L56.7177 12.1997L56.0484 14.4118C55.9809 14.6351 56.0044 14.8762 56.1138 15.0821C56.2232 15.288 56.4095 15.4418 56.6318 15.5097C56.7146 15.5346 56.8006 15.5474 56.8871 15.5475C57.0749 15.5474 57.2576 15.4867 57.4085 15.3745C57.5593 15.2622 57.6703 15.1042 57.725 14.9238L60.7123 5.05456C60.7794 4.83139 60.7557 4.59062 60.6463 4.38499C60.537 4.17936 60.3509 4.02565 60.1289 3.95753V3.95753Z" fill="#F39200"/>
<path d="M7.12225 11.5546C6.45465 11.5551 5.79869 11.3791 5.2203 11.0443C4.64192 10.7095 4.16151 10.2276 3.82739 9.64713C3.49326 9.06668 3.3172 8.40811 3.31689 7.73764C3.31659 7.06718 3.49206 6.40845 3.82567 5.82769C4.15927 5.24694 4.63924 4.76463 5.21732 4.42927C5.79541 4.0939 6.45122 3.91731 7.11881 3.91724C7.78641 3.91716 8.44225 4.09362 9.02041 4.42886C9.59856 4.7641 10.0786 5.2463 10.4124 5.82699L10.8518 6.58875L7.56 8.49768C7.35884 8.61428 7.11979 8.64584 6.89545 8.58543C6.67111 8.52502 6.47985 8.37758 6.36375 8.17555C6.24765 7.97352 6.21622 7.73344 6.27637 7.50814C6.33652 7.28283 6.48333 7.09075 6.6845 6.97415L8.28741 6.04886C7.94811 5.81263 7.5457 5.68477 7.13284 5.68202C6.71999 5.67926 6.31592 5.80173 5.97352 6.03341C5.63112 6.26508 5.36632 6.59517 5.21379 6.98047C5.06126 7.36577 5.02809 7.78835 5.11864 8.19289C5.20918 8.59744 5.41921 8.96511 5.72124 9.2478C6.02328 9.53049 6.40325 9.71502 6.81143 9.77726C7.21962 9.8395 7.637 9.77653 8.00897 9.59661C8.38094 9.41669 8.69016 9.12819 8.89618 8.76886C8.95377 8.66887 9.03041 8.58126 9.12172 8.51103C9.21302 8.44079 9.31721 8.3893 9.42833 8.35951C9.53945 8.32971 9.65533 8.32218 9.76935 8.33736C9.88336 8.35254 9.99329 8.39012 10.0928 8.44796C10.1924 8.50581 10.2796 8.58277 10.3496 8.67447C10.4195 8.76617 10.4708 8.87081 10.5004 8.98241C10.5301 9.09401 10.5376 9.21038 10.5225 9.32489C10.5074 9.4394 10.47 9.54979 10.4124 9.64977C10.0774 10.2282 9.59735 10.7084 9.02011 11.0426C8.44287 11.3768 7.78854 11.5533 7.12225 11.5546V11.5546Z" fill="#F39200"/>
<path d="M11.2249 10.6508C10.6093 11.5363 9.72836 12.2015 8.71033 12.5495C7.69231 12.8975 6.59027 12.9102 5.56454 12.5858C4.53881 12.2614 3.6429 11.6168 3.00714 10.7457C2.37137 9.87469 2.02893 8.82262 2.02961 7.74261C2.02265 7.51396 1.92732 7.29701 1.76381 7.13774C1.60031 6.97848 1.38148 6.8894 1.1537 6.8894C0.925917 6.8894 0.707087 6.97848 0.543581 7.13774C0.380074 7.29701 0.28474 7.51396 0.27778 7.74261C0.275424 9.17774 0.723338 10.5771 1.55792 11.7421C2.39249 12.907 3.57131 13.7783 4.92695 14.2321C6.2826 14.686 7.74617 14.6994 9.10982 14.2704C10.4735 13.8414 11.6679 12.9918 12.5234 11.8423C12.0216 11.5283 11.5815 11.1244 11.2249 10.6508Z" fill="#878787"/>
</g>
<defs>
<clipPath id="clip0_315_12643">
<rect width="60.4722" height="15.55" fill="white" transform="translate(0.277771)"/>
</clipPath>
</defs>
</svg>
