<svg width="117" height="30" viewBox="0 0 117 30" fill="none" xmlns="http://www.w3.org/2000/svg">
<g clip-path="url(#clip0_316_12653)">
<path d="M82.0122 22.1108C77.9843 22.1108 74.7063 18.8328 74.7063 14.8049C74.7063 10.777 77.9843 7.49902 82.0122 7.49902C84.6079 7.49902 87.0306 8.89983 88.3355 11.1528L89.1798 12.6102L82.8549 16.2623C82.0499 16.7277 81.0202 16.451 80.5564 15.646C80.091 14.8411 80.3677 13.8113 81.1727 13.3475L84.2526 11.5678C83.6033 11.1182 82.8235 10.8635 82.0138 10.8635C79.841 10.8635 78.0739 12.6306 78.0739 14.8034C78.0739 16.9761 79.841 18.7432 82.0138 18.7432C83.413 18.7432 84.7195 17.987 85.4223 16.7701C85.8876 15.9652 86.9174 15.6916 87.7224 16.157C88.5273 16.6224 88.8024 17.6521 88.3371 18.4571C87.0306 20.7116 84.6079 22.1108 82.0122 22.1108Z" fill="white"/>
<path d="M72.2128 21.5449C71.8245 21.9396 71.3513 22.1377 70.7884 22.1377C70.2256 22.1377 69.7429 21.9396 69.3373 21.5449C68.9333 21.1488 68.7305 20.6708 68.7305 20.108V13.2234C68.7305 12.626 68.5229 12.1119 68.111 11.6795C67.6975 11.2488 67.1834 11.0334 66.5687 11.0334C65.9524 11.0334 65.4352 11.244 65.0123 11.6654C64.5909 12.0883 64.3803 12.5977 64.3803 13.1951V21.9003H60.3979V13.1951C60.3979 12.5788 60.1825 12.0569 59.7518 11.6261C59.321 11.1953 58.8069 10.9799 58.2079 10.9799C57.5916 10.9799 57.0696 11.1859 56.6388 11.5994C56.2081 12.0128 55.9927 12.5269 55.9927 13.1432V21.9003H51.9569V9.58225C51.9569 8.96753 52.1456 8.47073 52.5245 8.09183C52.9018 7.71451 53.3986 7.52426 54.0149 7.52426C54.5431 7.52426 54.9283 7.68778 55.1752 8.01165C55.4204 8.33709 55.5619 8.73643 55.5965 9.21122C56.0005 8.63109 56.5241 8.19559 57.1655 7.90473C57.807 7.61545 58.472 7.46924 59.1575 7.46924C59.9656 7.46924 60.7344 7.64532 61.4654 7.99749C62.1949 8.34966 62.7892 8.85119 63.2451 9.5005C63.7734 8.86848 64.418 8.37953 65.1836 8.03679C65.9493 7.69406 66.7527 7.52271 67.5969 7.52271C68.3358 7.52271 69.0213 7.63746 69.6549 7.86543C70.2869 8.0934 70.8372 8.42356 71.3041 8.85434C71.7695 9.28511 72.1358 9.80394 72.3984 10.4108C72.6625 11.0177 72.7945 11.6984 72.7945 12.4546V20.1048C72.793 20.6708 72.598 21.1488 72.2128 21.5449Z" fill="white"/>
<path d="M34.5277 16.1589C33.7227 15.6936 32.6929 15.9687 32.2276 16.7721C31.5232 17.989 30.2167 18.7452 28.8191 18.7452C26.6463 18.7452 24.8792 16.9781 24.8792 14.8053C24.8792 12.6326 26.6463 10.8654 28.8191 10.8654C30.2167 10.8654 31.5248 11.6216 32.2276 12.8401L35.1408 11.1547C33.8375 8.90178 31.4132 7.50098 28.8175 7.50098C24.7896 7.50098 21.5116 10.779 21.5116 14.8069C21.5116 18.8348 24.7896 22.1128 28.8175 22.1128C31.4132 22.1128 33.8359 20.7135 35.1408 18.459C35.6077 17.6541 35.3326 16.6243 34.5277 16.1589Z" fill="white"/>
<path d="M43.4124 22.0617C39.4113 22.0617 36.1553 18.8057 36.1553 14.8045C36.1553 10.8033 39.4113 7.54736 43.4124 7.54736C47.4136 7.54736 50.6696 10.8033 50.6696 14.8045C50.6696 18.8057 47.4136 22.0617 43.4124 22.0617ZM43.4124 10.9134C41.2664 10.9134 39.5213 12.6585 39.5213 14.8045C39.5213 16.9506 41.2664 18.6957 43.4124 18.6957C45.5585 18.6957 47.3036 16.9506 47.3036 14.8045C47.3036 12.6585 45.5585 10.9134 43.4124 10.9134Z" fill="white"/>
<path d="M101.668 0C100.739 0 99.9856 0.753084 99.9856 1.68224V6.76036V15.6605V22.1378H103.352V15.6605V6.76036V1.68224C103.35 0.753084 102.597 0 101.668 0Z" fill="white"/>
<path d="M96.9906 7.4992C95.5709 7.53379 94.4625 7.84035 93.5868 8.2727C93.2866 7.80891 92.7677 7.4992 92.175 7.4992C91.2459 7.4992 90.4928 8.25227 90.4928 9.18142V12.0679V14.7595V16.9165V22.1377H93.8588V16.9165V14.7595V12.5192C94.0381 12.0899 94.7377 10.9218 97.0755 10.8637C98.0047 10.8401 98.7389 10.0681 98.7169 9.13897C98.6917 8.21139 97.9072 7.46461 96.9906 7.4992Z" fill="white"/>
<path d="M115.422 7.57149C114.531 7.29794 113.592 7.80261 113.322 8.69246L110.627 17.558L107.547 7.42529L104.328 8.40476L108.87 23.3436L107.583 27.5759C107.313 28.4657 107.815 29.4043 108.704 29.6747C108.868 29.725 109.033 29.7486 109.195 29.7486C109.917 29.7486 110.583 29.2801 110.805 28.5553L116.545 9.67035C116.812 8.78207 116.311 7.84191 115.422 7.57149Z" fill="white"/>
<path d="M13.5741 22.1108C9.54618 22.1108 6.26819 18.8328 6.26819 14.8049C6.26819 10.777 9.54618 7.49902 13.5741 7.49902C16.1698 7.49902 18.5925 8.89983 19.8974 11.1528L20.7417 12.6102L14.4168 16.2623C13.6118 16.7277 12.5821 16.451 12.1183 15.646C11.6529 14.8411 11.9296 13.8113 12.7346 13.3475L15.8144 11.5678C15.1651 11.1182 14.3853 10.8635 13.5757 10.8635C11.4029 10.8635 9.63579 12.6306 9.63579 14.8034C9.63579 16.9761 11.4029 18.7432 13.5757 18.7432C14.9749 18.7432 16.2814 17.987 16.9841 16.7701C17.4495 15.9652 18.4793 15.6916 19.2842 16.157C20.0892 16.6224 20.3643 17.6521 19.899 18.4571C18.5925 20.7116 16.1698 22.1108 13.5741 22.1108Z" fill="white"/>
<path d="M21.4567 20.383C19.6974 22.889 16.792 24.5335 13.5046 24.5335C8.14661 24.5335 3.78853 20.1755 3.78853 14.8175C3.78853 13.8883 3.03546 13.1353 2.1063 13.1353C1.17714 13.1353 0.424072 13.8883 0.424072 14.8175C0.424072 22.0306 6.29301 27.898 13.5062 27.898C17.7778 27.898 21.5651 25.8321 23.9533 22.6563C22.9864 22.0558 22.1421 21.2854 21.4567 20.383Z" fill="white"/>
</g>
<defs>
<clipPath id="clip0_316_12653">
<rect width="116.193" height="29.7486" fill="white" transform="translate(0.424072)"/>
</clipPath>
</defs>
</svg>
