<svg width="22" height="22" viewBox="0 0 22 22" fill="none" xmlns="http://www.w3.org/2000/svg">
<rect x="0.667969" y="0.811035" width="20.9651" height="20.9651" rx="1.74709" fill="#F4A100"/>
<g clip-path="url(#clip0_202_164)">
<path d="M10.2784 13.9142C11.0537 13.9141 11.8066 13.6545 12.4173 13.1769L14.3374 15.097L14.955 14.4794L13.0349 12.5593C13.5127 11.9486 13.7724 11.1955 13.7726 10.42C13.7726 8.49342 12.205 6.92584 10.2784 6.92584C8.35182 6.92584 6.78424 8.49342 6.78424 10.42C6.78424 12.3466 8.35182 13.9142 10.2784 13.9142ZM10.2784 7.79939C11.7237 7.79939 12.8991 8.97474 12.8991 10.42C12.8991 11.8653 11.7237 13.0407 10.2784 13.0407C8.83314 13.0407 7.65779 11.8653 7.65779 10.42C7.65779 8.97474 8.83314 7.79939 10.2784 7.79939Z" fill="white"/>
</g>
<defs>
<clipPath id="clip0_202_164">
<rect width="10.4826" height="10.4826" fill="white" transform="translate(5.90924 6.05231)"/>
</clipPath>
</defs>
</svg>
