<svg width="15" height="15" viewBox="0 0 15 15" fill="none" xmlns="http://www.w3.org/2000/svg">
<path d="M12.3279 1.77957H2.28215C2.04056 1.77957 1.84538 1.97475 1.84538 2.21634V12.2621C1.84538 12.5037 2.04056 12.6989 2.28215 12.6989H12.3279C12.5695 12.6989 12.7647 12.5037 12.7647 12.2621V2.21634C12.7647 1.97475 12.5695 1.77957 12.3279 1.77957ZM11.8912 11.8253H9.37835V8.47039H10.7979L11.0108 6.82293H9.37835V5.77058C9.37835 5.29286 9.51074 4.96801 10.1946 4.96801H11.0667V3.49391C10.9152 3.47343 10.3979 3.42839 9.79465 3.42839C8.53619 3.42839 7.67493 4.19684 7.67493 5.60679V6.82157H6.25269V8.46902H7.6763V11.8253H2.71892V2.65312H11.8912V11.8253Z" fill="#F2F2F2"/>
</svg>
