<svg width="109" height="18" viewBox="0 0 109 18" fill="none" xmlns="http://www.w3.org/2000/svg">
<path d="M21.6416 4.20532H27.366V6.14535H22.7506V7.95931H26.3715V9.89934H22.7506V13.7164H20.4463V5.40062C20.4463 5.08361 20.5723 4.77958 20.7964 4.55542C21.0206 4.33126 21.3246 4.20532 21.6416 4.20532V4.20532Z" fill="#F2F2F2"/>
<path d="M31.0926 4.20532H33.0108L36.7718 13.7164H34.3065L33.6621 11.9724H29.635L28.9906 13.7164H26.5253L29.9808 4.96178C30.0688 4.73871 30.2219 4.54728 30.4202 4.41237C30.6185 4.27747 30.8527 4.20532 31.0926 4.20532V4.20532ZM30.2933 10.1795H33.0038L31.652 6.50954L30.2933 10.1795Z" fill="#F2F2F2"/>
<path d="M45.0155 13.7164H37.8857V5.40062C37.8857 5.08361 38.0116 4.77958 38.2358 4.55542C38.46 4.33126 38.764 4.20532 39.081 4.20532H40.1899V11.7833H45.0155L45.0155 13.7164Z" fill="#F2F2F2"/>
<path d="M50.6962 4.20532H52.6144L56.3754 13.7164H53.9101L53.2657 11.9724H49.2386L48.5942 13.7164H46.1289L49.5844 4.96178C49.6724 4.73871 49.8255 4.54728 50.0238 4.41237C50.2221 4.27747 50.4564 4.20532 50.6962 4.20532ZM49.8969 10.1795H52.6074L51.2556 6.50954L49.8969 10.1795Z" fill="#F2F2F2"/>
<path d="M59.9923 6.47949H64.1519V7.05544H60.067V9.67919H63.592V10.2605H60.067V13.1455H64.2693V13.7215H59.4271V7.04477C59.4271 6.89485 59.4866 6.75107 59.5926 6.64506C59.6986 6.53905 59.8424 6.47949 59.9923 6.47949V6.47949Z" fill="#F2F2F2"/>
<path d="M65.2454 11.167C65.2454 9.66318 66.36 8.49528 67.8372 8.49528C68.8078 8.49528 69.5757 8.97524 69.9597 9.58851V6.77811C69.9597 6.62819 70.0192 6.48441 70.1252 6.3784C70.2312 6.27239 70.375 6.21283 70.5249 6.21283H70.5996V13.7215H69.9597V12.7509C69.5704 13.3588 68.8024 13.8281 67.8372 13.8281C66.36 13.8281 65.2454 12.6656 65.2454 11.167ZM65.8747 11.167C65.8747 12.3349 66.7333 13.2415 67.8799 13.2415C69.0851 13.2415 69.9917 12.3349 69.9917 11.167C69.9917 9.98848 69.0851 9.08189 67.8799 9.08189C66.7333 9.08189 65.8747 9.98848 65.8747 11.167V11.167Z" fill="#F2F2F2"/>
<path d="M72.3166 11.7269V9.16715C72.3166 9.09291 72.3312 9.01941 72.3596 8.95082C72.388 8.88224 72.4296 8.81992 72.4821 8.76743C72.5346 8.71494 72.5969 8.6733 72.6655 8.6449C72.7341 8.61649 72.8076 8.60187 72.8819 8.60187H72.9565V11.5349C72.9565 12.6815 73.5271 13.2308 74.5724 13.2308C74.8009 13.2367 75.0282 13.196 75.2405 13.1113C75.4528 13.0266 75.6457 12.8995 75.8073 12.7379C75.9689 12.5762 76.096 12.3834 76.1807 12.1711C76.2655 11.9588 76.3061 11.7314 76.3002 11.5029V8.60187H76.9401V13.7214H76.3002V12.8308C75.9002 13.5241 75.1803 13.828 74.471 13.828C73.1965 13.828 72.3166 13.1134 72.3166 11.7269Z" fill="#F2F2F2"/>
<path d="M78.3482 11.1617C78.3482 9.65247 79.5428 8.49525 81.1159 8.49525C81.5708 8.48622 82.0197 8.60041 82.4149 8.82573C82.8102 9.05106 83.1371 9.37911 83.3611 9.77513L82.8651 10.0951C82.683 9.79248 82.4269 9.54117 82.1209 9.36485C81.8149 9.18852 81.4691 9.09297 81.1159 9.08719C79.8947 9.08719 78.9935 9.99378 78.9935 11.1617C78.9873 11.4363 79.0366 11.7093 79.1385 11.9644C79.2404 12.2195 79.3928 12.4514 79.5866 12.6461C79.7803 12.8408 80.0114 12.9944 80.266 13.0976C80.5205 13.2009 80.7933 13.2516 81.0679 13.2468C81.4248 13.2413 81.7747 13.1467 82.0858 12.9716C82.3968 12.7965 82.6592 12.5465 82.8491 12.2442L83.3504 12.5589C82.9131 13.3215 82.0225 13.8281 81.0679 13.8281C79.5108 13.8281 78.3482 12.6549 78.3482 11.1617Z" fill="#F2F2F2"/>
<path d="M86.5393 10.6871C87.1312 10.6871 87.7711 10.8471 88.1551 11.0924V10.6124C88.1551 9.65252 87.5098 9.08191 86.5339 9.08191C86.2146 9.09131 85.9012 9.16956 85.6149 9.3113C85.3287 9.45305 85.0764 9.65494 84.8754 9.90317L84.8733 9.9011C84.816 9.84324 84.7718 9.77376 84.7437 9.69734C84.7155 9.62092 84.7041 9.53934 84.7102 9.45814C84.7163 9.37693 84.7398 9.29798 84.779 9.22662C84.8182 9.15526 84.8724 9.09315 84.9377 9.0445C85.3949 8.69473 85.9529 8.50209 86.5286 8.4953C87.8938 8.4953 88.7897 9.29523 88.7897 10.5218V13.7215H88.1711V12.7936C87.8671 13.4122 87.1579 13.8281 86.2726 13.8281C85.1687 13.8281 84.3261 13.2415 84.3261 12.2976C84.3261 11.3804 85.2327 10.6871 86.5393 10.6871ZM84.9661 12.2656C84.9661 12.9215 85.4887 13.3002 86.3739 13.3002C87.3925 13.3002 88.1498 12.4789 88.1551 11.6203C87.8511 11.375 87.1739 11.1937 86.5499 11.1937C85.5953 11.1937 84.9661 11.6203 84.9661 12.2656Z" fill="#F2F2F2"/>
<path d="M90.8109 8.60199V7.52475C90.8109 7.37483 90.8705 7.23105 90.9765 7.12504C91.0825 7.01903 91.2263 6.95947 91.3762 6.95947H91.4615V8.60198H93.264V9.16726H91.4615V12.1377C91.4615 12.9376 91.8668 13.2522 92.3895 13.2522C92.7087 13.2478 93.0233 13.1751 93.312 13.0389L93.3974 13.5882C93.0751 13.7508 92.7184 13.8331 92.3575 13.8282C91.4562 13.8282 90.8163 13.3375 90.8163 12.2923V9.16726H89.8404C89.8404 9.09303 89.855 9.01952 89.8834 8.95094C89.9118 8.88236 89.9534 8.82004 90.0059 8.76755C90.0584 8.71506 90.1207 8.67342 90.1893 8.64502C90.2579 8.61661 90.3314 8.60198 90.4056 8.60198L90.8109 8.60199Z" fill="#F2F2F2"/>
<path d="M94.8797 6.48484C94.9327 6.48413 94.9853 6.49396 95.0344 6.51375C95.0836 6.53353 95.1283 6.56288 95.166 6.60009C95.2037 6.6373 95.2337 6.68163 95.2541 6.7305C95.2745 6.77938 95.2851 6.83183 95.2851 6.8848C95.2851 6.93778 95.2745 6.99022 95.2541 7.0391C95.2337 7.08797 95.2037 7.1323 95.166 7.16951C95.1283 7.20672 95.0836 7.23607 95.0344 7.25586C94.9853 7.27564 94.9327 7.28547 94.8797 7.28476C94.7737 7.28476 94.6719 7.24262 94.5969 7.16762C94.5219 7.09261 94.4798 6.99088 94.4798 6.8848C94.4798 6.77872 94.5219 6.67699 94.5969 6.60199C94.6719 6.52698 94.7737 6.48484 94.8797 6.48484V6.48484ZM95.1997 8.60198V13.7215H94.5598V9.16726C94.5598 9.01733 94.6193 8.87355 94.7253 8.76754C94.8313 8.66153 94.9751 8.60198 95.125 8.60198H95.1997Z" fill="#F2F2F2"/>
<path d="M96.6078 11.1617C96.6078 9.66319 97.7703 8.4953 99.3275 8.4953C100.885 8.4953 102.047 9.66319 102.047 11.1617C102.047 12.6602 100.885 13.8281 99.3275 13.8281C97.7703 13.8281 96.6078 12.6602 96.6078 11.1617ZM99.3275 13.2415C99.7389 13.2415 100.141 13.1195 100.483 12.891C100.825 12.6625 101.092 12.3377 101.249 11.9576C101.406 11.5776 101.448 11.1594 101.367 10.756C101.287 10.3525 101.089 9.98194 100.798 9.69107C100.507 9.40021 100.137 9.20212 99.7333 9.12187C99.3298 9.04162 98.9116 9.08281 98.5316 9.24023C98.1516 9.39764 97.8268 9.66421 97.5982 10.0062C97.3697 10.3483 97.2477 10.7504 97.2477 11.1617C97.2427 11.4362 97.293 11.7089 97.3958 11.9635C97.4985 12.2182 97.6515 12.4494 97.8457 12.6436C98.0398 12.8377 98.2711 12.9907 98.5257 13.0935C98.7803 13.1962 99.053 13.2466 99.3275 13.2415V13.2415Z" fill="#F2F2F2"/>
<path d="M103.455 13.7215V9.16724C103.455 9.01732 103.515 8.87353 103.621 8.76752C103.727 8.66151 103.87 8.60196 104.02 8.60196H104.095V9.49254C104.5 8.79927 105.231 8.4953 105.951 8.4953C107.241 8.4953 108.132 9.2099 108.132 10.5964V13.7215H107.492V10.7884C107.492 9.64186 106.911 9.09258 105.849 9.09258C104.873 9.09258 104.095 9.80184 104.095 10.8204V13.7215H103.455Z" fill="#F2F2F2"/>
<path d="M16.736 4.92502C16.6275 4.87376 16.5093 4.84626 16.3893 4.84433C16.0815 4.84134 15.702 4.83239 15.2777 4.81446C13.3323 4.72182 10.4397 4.40507 9.03225 3.34722C8.26728 2.77348 7.06001 2.41788 5.80496 2.19974C5.15949 2.08619 4.50206 2.00849 3.8865 1.9547C2.86386 1.86991 1.83758 1.837 0.811611 1.85609V3.82236C0.811574 4.01712 0.867264 4.20784 0.972103 4.37198C1.07694 4.53612 1.22656 4.66684 1.40328 4.74871C1.53057 4.80473 1.66762 4.83518 1.80665 4.83835C2.07563 4.84134 2.38938 4.85031 2.73304 4.86525C4.68437 4.9549 7.61583 5.27165 9.03225 6.33547C10.7714 7.64133 14.7876 7.81764 16.47 7.82959C16.9422 7.83557 17.232 7.8266 17.232 7.8266V5.69897C17.2321 5.53601 17.1854 5.37645 17.0975 5.23925C17.0095 5.10205 16.8841 4.99299 16.736 4.92502Z" fill="#F4A100"/>
<path d="M3.79021 14.4381C3.27325 14.3963 2.72342 14.3664 2.15266 14.3514C2.13667 14.3519 2.12067 14.3509 2.10487 14.3484C2.91995 15.4073 3.96729 16.2648 5.16616 16.855C6.36503 17.4451 7.68341 17.752 9.01964 17.7521L7.52552 16.4074C6.11803 16.1208 4.82192 15.4375 3.79021 14.4381V14.4381Z" fill="#F2F2F2"/>
<path d="M15.5159 12.8364C14.8513 13.969 13.9021 14.9082 12.7626 15.5608C11.623 16.2134 10.3326 16.5567 9.01945 16.5567V17.752C10.6534 17.7512 12.2545 17.2924 13.641 16.4278C15.0275 15.5632 16.1439 14.3272 16.8636 12.8603H16.7082C16.3855 12.8603 15.9791 12.8543 15.5159 12.8364Z" fill="#F2F2F2"/>
<path d="M9.02013 1.47658C10.1365 1.47636 11.2389 1.72424 12.2477 2.20228C13.2565 2.68032 14.1464 3.37658 14.8532 4.2407C15.3372 4.2706 15.8423 4.28852 16.3652 4.29449C15.1493 2.3997 13.2481 1.0482 11.0589 0.522492C8.86981 -0.00321449 6.56219 0.33756 4.61845 1.47358C5.33284 1.55157 6.0422 1.6703 6.74305 1.82918C7.47927 1.59457 8.24743 1.47562 9.02013 1.47658V1.47658Z" fill="#F2F2F2"/>
<path d="M16.5567 9.34167C16.5017 9.32965 16.4456 9.32364 16.3893 9.32374C14.6621 9.30581 10.7445 9.11456 9.03225 7.82663C7.4156 6.6134 3.82671 6.37435 1.97401 6.3355C1.2658 6.32056 0.811611 6.3355 0.811611 6.3355V8.30177C0.8118 8.51171 0.876753 8.71648 0.997609 8.88815C1.11847 9.05982 1.28934 9.19003 1.48692 9.261C1.58943 9.29819 1.6976 9.31739 1.80665 9.31776C3.60857 9.34766 7.3678 9.55982 9.03224 10.8119C10.5742 11.9713 13.9031 12.2433 15.8096 12.2971C16.4311 12.318 16.9033 12.312 17.1125 12.309C17.1902 12.306 17.232 12.306 17.232 12.306V10.1784C17.2326 9.98258 17.1658 9.79255 17.0428 9.64019C16.9198 9.48783 16.7482 9.38243 16.5567 9.34167V9.34167Z" fill="#F2F2F2"/>
<path d="M3.23804 13.8509C5.1565 13.9704 7.72041 14.3141 9.02032 15.2853V13.1009C9.02015 12.8294 8.94094 12.564 8.79234 12.3368C8.64375 12.1097 8.43222 11.9308 8.1836 11.8219C6.26812 10.9732 3.20221 10.8268 1.69912 10.8089C1.15224 10.8029 0.811611 10.8119 0.811611 10.8119V12.4136C0.811912 12.6834 0.890579 12.9474 1.03805 13.1734C1.18552 13.3993 1.39544 13.5776 1.64232 13.6866C1.80884 13.7578 1.98721 13.7974 2.16825 13.8031C2.48798 13.8121 2.84955 13.827 3.23804 13.8509Z" fill="#F2F2F2"/>
</svg>
