<svg width="16" height="15" viewBox="0 0 16 15" fill="none" xmlns="http://www.w3.org/2000/svg">
<path fill-rule="evenodd" clip-rule="evenodd" d="M4.99715 1.0845C5.61816 1.05591 5.81616 1.04956 7.39807 1.04956C8.97999 1.04956 9.17799 1.05644 9.79847 1.0845C10.419 1.11256 10.8425 1.21156 11.2131 1.35504C11.6012 1.50169 11.9532 1.73093 12.2444 2.0274C12.5409 2.31806 12.7696 2.66959 12.9157 3.05819C13.0597 3.42878 13.1582 3.85232 13.1868 4.47174C13.2154 5.09381 13.2217 5.29182 13.2217 6.8732C13.2217 8.45511 13.2148 8.65312 13.1868 9.27413C13.1587 9.89355 13.0597 10.3171 12.9157 10.6877C12.7696 11.0763 12.5405 11.4284 12.2444 11.7195C11.9532 12.016 11.6012 12.2447 11.2131 12.3908C10.8425 12.5348 10.419 12.6333 9.79953 12.6619C9.17799 12.6905 8.97999 12.6968 7.39807 12.6968C5.81616 12.6968 5.61816 12.69 4.99715 12.6619C4.37772 12.6338 3.95419 12.5348 3.58359 12.3908C3.19495 12.2447 2.84283 12.0156 2.55175 11.7195C2.25547 11.4287 2.0262 11.0767 1.87991 10.6882C1.73644 10.3176 1.63796 9.89408 1.60938 9.27466C1.58079 8.65259 1.57443 8.45458 1.57443 6.8732C1.57443 5.29129 1.58132 5.09328 1.60938 4.4728C1.63744 3.85232 1.73644 3.42878 1.87991 3.05819C2.02641 2.66963 2.25586 2.31769 2.55228 2.02687C2.84295 1.73066 3.19471 1.50139 3.58306 1.35504C3.95366 1.21156 4.37719 1.11309 4.99662 1.0845H4.99715ZM9.75135 2.13276C9.13722 2.1047 8.95299 2.09887 7.39807 2.09887C5.84316 2.09887 5.65892 2.1047 5.04479 2.13276C4.47672 2.1587 4.1686 2.25347 3.96319 2.33341C3.69159 2.43929 3.49729 2.56477 3.29347 2.76859C3.10025 2.95657 2.95156 3.1854 2.85828 3.43831C2.77834 3.64373 2.68357 3.95185 2.65763 4.51992C2.62957 5.13405 2.62375 5.31829 2.62375 6.8732C2.62375 8.42811 2.62957 8.61235 2.65763 9.22648C2.68357 9.79455 2.77834 10.1027 2.85828 10.3081C2.95146 10.5606 3.10023 10.7899 3.29347 10.9778C3.48141 11.171 3.71065 11.3198 3.96319 11.413C4.1686 11.4929 4.47672 11.5877 5.04479 11.6136C5.65892 11.6417 5.84263 11.6475 7.39807 11.6475C8.95351 11.6475 9.13722 11.6417 9.75135 11.6136C10.3194 11.5877 10.6275 11.4929 10.833 11.413C11.1046 11.3071 11.2989 11.1816 11.5027 10.9778C11.6959 10.7899 11.8447 10.5606 11.9379 10.3081C12.0178 10.1027 12.1126 9.79455 12.1385 9.22648C12.1666 8.61235 12.1724 8.42811 12.1724 6.8732C12.1724 5.31829 12.1666 5.13405 12.1385 4.51992C12.1126 3.95185 12.0178 3.64373 11.9379 3.43831C11.832 3.16672 11.7065 2.97242 11.5027 2.76859C11.3147 2.57539 11.0859 2.4267 10.833 2.33341C10.6275 2.25347 10.3194 2.1587 9.75135 2.13276V2.13276ZM6.65424 8.66847C7.06965 8.84139 7.53222 8.86473 7.96293 8.7345C8.39364 8.60426 8.76578 8.32854 9.01578 7.95441C9.26578 7.58028 9.37814 7.13096 9.33366 6.68319C9.28919 6.23543 9.09064 5.81699 8.77192 5.49935C8.56875 5.2963 8.32309 5.14083 8.05262 5.04413C7.78214 4.94742 7.4936 4.91188 7.20774 4.94008C6.92189 4.96827 6.64585 5.05949 6.39948 5.20718C6.15311 5.35486 5.94256 5.55533 5.78297 5.79416C5.62338 6.03299 5.51873 6.30422 5.47655 6.58835C5.43437 6.87248 5.45571 7.16242 5.53903 7.43731C5.62235 7.7122 5.76559 7.96519 5.95843 8.17808C6.15126 8.39096 6.3889 8.55845 6.65424 8.66847ZM5.28145 4.75657C5.5594 4.47861 5.88939 4.25812 6.25256 4.10769C6.61573 3.95726 7.00498 3.87984 7.39807 3.87984C7.79117 3.87984 8.18041 3.95726 8.54358 4.10769C8.90676 4.25812 9.23674 4.47861 9.5147 4.75657C9.79266 5.03453 10.0132 5.36452 10.1636 5.72769C10.314 6.09086 10.3914 6.48011 10.3914 6.8732C10.3914 7.26629 10.314 7.65554 10.1636 8.01871C10.0132 8.38188 9.79266 8.71187 9.5147 8.98983C8.95334 9.55119 8.19196 9.86656 7.39807 9.86656C6.60418 9.86656 5.84281 9.55119 5.28145 8.98983C4.72008 8.42846 4.40471 7.66709 4.40471 6.8732C4.40471 6.07931 4.72008 5.31794 5.28145 4.75657V4.75657ZM11.0553 4.32562C11.1242 4.26065 11.1793 4.18251 11.2175 4.09584C11.2556 4.00917 11.276 3.91573 11.2774 3.82105C11.2787 3.72637 11.2611 3.63237 11.2255 3.54462C11.1899 3.45688 11.1371 3.37717 11.0701 3.31021C11.0032 3.24326 10.9235 3.19041 10.8357 3.15482C10.748 3.11922 10.654 3.10159 10.5593 3.10297C10.4646 3.10435 10.3712 3.12471 10.2845 3.16285C10.1978 3.20099 10.1197 3.25613 10.0547 3.32502C9.92834 3.45897 9.85916 3.63691 9.86184 3.82105C9.86453 4.00518 9.93887 4.18103 10.0691 4.31124C10.1993 4.44146 10.3751 4.51581 10.5593 4.51849C10.7434 4.52117 10.9214 4.45199 11.0553 4.32562V4.32562Z" fill="#F2F2F2"/>
</svg>
