<svg width="15" height="15" viewBox="0 0 15 15" fill="none" xmlns="http://www.w3.org/2000/svg">
<path d="M12.2049 1.77957H3.04083C2.55628 1.77957 2.16319 2.17267 2.16319 2.65721V11.8213C2.16319 12.3058 2.55628 12.6989 3.04083 12.6989H12.2049C12.6894 12.6989 13.0825 12.3058 13.0825 11.8213V2.65721C13.0825 2.17267 12.6894 1.77957 12.2049 1.77957V1.77957ZM12.2049 11.8253C6.09278 11.824 3.03673 11.8226 3.03673 11.8213C3.0381 5.70916 3.03946 2.65312 3.04083 2.65312C9.15292 2.65448 12.209 2.65585 12.209 2.65721C12.2076 8.7693 12.2062 11.8253 12.2049 11.8253ZM3.78198 5.87295H5.40213V11.0842H3.78198V5.87295ZM4.59274 5.16047C5.11004 5.16047 5.5318 4.74007 5.5318 4.22141C5.5318 4.09809 5.50751 3.97597 5.46032 3.86204C5.41312 3.74811 5.34395 3.64459 5.25675 3.55739C5.16955 3.47019 5.06603 3.40102 4.9521 3.35383C4.83817 3.30663 4.71606 3.28234 4.59274 3.28234C4.46942 3.28234 4.34731 3.30663 4.23337 3.35383C4.11944 3.40102 4.01592 3.47019 3.92872 3.55739C3.84152 3.64459 3.77235 3.74811 3.72516 3.86204C3.67796 3.97597 3.65367 4.09809 3.65367 4.22141C3.65231 4.74007 4.0727 5.16047 4.59274 5.16047ZM8.03642 8.50587C8.03642 7.82615 8.16609 7.16826 9.00824 7.16826C9.83811 7.16826 9.85039 7.94489 9.85039 8.54955V11.0842H11.4692V8.22607C11.4692 6.82293 11.1662 5.74329 9.52691 5.74329C8.73935 5.74329 8.21113 6.17596 7.99411 6.58544H7.97227V5.87295H6.41763V11.0842H8.03642V8.50587Z" fill="#F2F2F2"/>
</svg>
