<svg width="15" height="15" viewBox="0 0 15 15" fill="none" xmlns="http://www.w3.org/2000/svg">
<path d="M13.9606 7.20093C13.9606 7.1709 13.9606 7.13678 13.9592 7.09719C13.9578 6.98664 13.9551 6.86243 13.9524 6.73003C13.9415 6.34922 13.9224 5.96977 13.8923 5.61217C13.8514 5.11943 13.7913 4.70859 13.7094 4.40012C13.623 4.0782 13.4536 3.78461 13.2182 3.54868C12.9827 3.31275 12.6895 3.14276 12.3677 3.05568C11.9814 2.95195 11.2253 2.88779 10.1607 2.84821C9.65427 2.8291 9.1124 2.81682 8.57053 2.80999C8.3808 2.80726 8.20473 2.8059 8.0464 2.80453H7.64511C7.48678 2.8059 7.31071 2.80726 7.12099 2.80999C6.57911 2.81682 6.03724 2.8291 5.53086 2.84821C4.46622 2.88916 3.7087 2.95331 3.32379 3.05568C3.00194 3.14254 2.70858 3.31247 2.4731 3.54843C2.23762 3.78439 2.06829 4.0781 1.98208 4.40012C1.89882 4.70859 1.84013 5.11943 1.79918 5.61217C1.76915 5.96977 1.75004 6.34922 1.73912 6.73003C1.73503 6.86243 1.73366 6.98664 1.7323 7.09719C1.7323 7.13678 1.73093 7.1709 1.73093 7.20093V7.27736C1.73093 7.30739 1.73093 7.34151 1.7323 7.3811C1.73366 7.49165 1.73639 7.61586 1.73912 7.74826C1.75004 8.12907 1.76915 8.50852 1.79918 8.86612C1.84013 9.35886 1.90018 9.7697 1.98208 10.0782C2.15679 10.732 2.67 11.2479 3.32379 11.4226C3.7087 11.5263 4.46622 11.5905 5.53086 11.6301C6.03724 11.6492 6.57911 11.6615 7.12099 11.6683C7.31071 11.671 7.48678 11.6724 7.64511 11.6738H8.0464C8.20473 11.6724 8.3808 11.671 8.57053 11.6683C9.1124 11.6615 9.65427 11.6492 10.1607 11.6301C11.2253 11.5891 11.9828 11.525 12.3677 11.4226C13.0215 11.2479 13.5347 10.7333 13.7094 10.0782C13.7927 9.7697 13.8514 9.35886 13.8923 8.86612C13.9224 8.50852 13.9415 8.12907 13.9524 7.74826C13.9565 7.61586 13.9578 7.49165 13.9592 7.3811C13.9592 7.34151 13.9606 7.30739 13.9606 7.27736V7.20093V7.20093ZM12.9778 7.2719C12.9778 7.30057 12.9778 7.33196 12.9765 7.36881C12.9751 7.47528 12.9724 7.59266 12.9696 7.7196C12.9601 8.08266 12.941 8.44573 12.9123 8.78286C12.8755 9.22237 12.8236 9.58271 12.7595 9.8243C12.6748 10.1396 12.4264 10.3894 12.1125 10.4726C11.8258 10.5491 11.1038 10.6105 10.1224 10.6473C9.62561 10.6664 9.09056 10.6787 8.55688 10.6856C8.36988 10.6883 8.19654 10.6897 8.04094 10.6897H7.65057L7.13463 10.6856C6.60095 10.6787 6.06727 10.6664 5.56908 10.6473C4.5877 10.6091 3.8643 10.5491 3.57903 10.4726C3.2651 10.388 3.01668 10.1396 2.93206 9.8243C2.86791 9.58271 2.81604 9.22237 2.77919 8.78286C2.75053 8.44573 2.73278 8.08266 2.72186 7.7196C2.71777 7.59266 2.7164 7.47391 2.71504 7.36881C2.71504 7.33196 2.71367 7.2992 2.71367 7.2719V7.20639C2.71367 7.17772 2.71367 7.14633 2.71504 7.10948C2.7164 7.00301 2.71913 6.88563 2.72186 6.75869C2.73142 6.39563 2.75053 6.03256 2.77919 5.69543C2.81604 5.25592 2.86791 4.89559 2.93206 4.654C3.01668 4.3387 3.2651 4.08892 3.57903 4.00566C3.86566 3.92923 4.5877 3.8678 5.56908 3.83095C6.06591 3.81184 6.60095 3.79956 7.13463 3.79273C7.32163 3.79 7.49497 3.78864 7.65057 3.78864H8.04094L8.55688 3.79273C9.09056 3.79956 9.62424 3.81184 10.1224 3.83095C11.1038 3.86917 11.8272 3.92923 12.1125 4.00566C12.4264 4.09029 12.6748 4.3387 12.7595 4.654C12.8236 4.89559 12.8755 5.25592 12.9123 5.69543C12.941 6.03256 12.9587 6.39563 12.9696 6.75869C12.9737 6.88563 12.9751 7.00438 12.9765 7.10948C12.9765 7.14633 12.9778 7.17909 12.9778 7.20639V7.2719ZM6.63098 9.06813L9.79758 7.2255L6.63098 5.41016V9.06813Z" fill="#F2F2F2"/>
</svg>
