<svg width="40" height="40" viewBox="0 0 40 40" fill="none" xmlns="http://www.w3.org/2000/svg">
<path d="M37.8188 17.7223C38.1019 18.0052 38.3264 18.3411 38.4796 18.7108C38.6328 19.0805 38.7117 19.4768 38.7117 19.877C38.7117 20.2772 38.6328 20.6735 38.4796 21.0432C38.3264 21.4129 38.1019 21.7488 37.8188 22.0317L22.1376 37.7129C21.5661 38.2841 20.7912 38.605 19.9832 38.605C19.1752 38.605 18.4003 38.2841 17.8288 37.7129L2.14755 22.0317C1.57659 21.4603 1.25586 20.6856 1.25586 19.8779C1.25586 19.0702 1.57659 18.2955 2.14755 17.7242L17.8288 2.04291C18.1116 1.75996 18.4474 1.5355 18.817 1.38236C19.1866 1.22921 19.5828 1.15039 19.9829 1.15039C20.3829 1.15039 20.7791 1.22921 21.1487 1.38236C21.5183 1.5355 21.8541 1.75996 22.1369 2.04291L37.8182 17.7242" fill="#575757"/>
<path d="M15.2193 35.1011L17.833 37.7148C18.4045 38.286 19.1794 38.6069 19.9874 38.6069C20.7954 38.6069 21.5703 38.286 22.1418 37.7148L37.823 22.0336C38.1061 21.7507 38.3307 21.4148 38.4839 21.0451C38.6371 20.6754 38.7159 20.2791 38.7159 19.8789C38.7159 19.4787 38.6371 19.0824 38.4839 18.7127C38.3307 18.343 38.1061 18.0071 37.823 17.7242L22.1418 2.04297C31.1268 17.8536 19.6418 30.9117 15.2168 35.0973" fill="black"/>
<path d="M34.213 20.3234L19.9873 34.3265L5.76172 20.3234L19.988 6.31836L34.213 20.3234Z" fill="#262626"/>
<path d="M24.1185 20.3234L19.9879 24.3871L15.8579 20.3234L19.9879 16.2559L24.1185 20.3234Z" fill="#BFBFBF"/>
</svg>
