<svg width="14" height="14" viewBox="0 0 14 14" fill="none" xmlns="http://www.w3.org/2000/svg">
<path d="M13.5771 3.57004C13.4846 3.52719 13.3838 3.5042 13.2815 3.50259C13.0191 3.50009 12.6955 3.4926 12.3337 3.47761C10.6751 3.40017 8.20892 3.13536 7.0089 2.25099C6.35668 1.77134 5.32737 1.47406 4.25732 1.29169C3.70699 1.19676 3.14646 1.13181 2.62164 1.08684C1.74974 1.01595 0.874738 0.988435 1.58033e-08 1.00439V2.64821C-3.16248e-05 2.81104 0.0474493 2.97047 0.136835 3.1077C0.226221 3.24492 0.353781 3.3542 0.504456 3.42265C0.612979 3.46948 0.72983 3.49494 0.848367 3.49759C1.0777 3.50009 1.3452 3.50759 1.6382 3.52008C3.30191 3.59502 5.80126 3.85983 7.0089 4.74918C8.49169 5.84089 11.9159 5.98829 13.3503 5.99828C13.7529 6.00328 14 5.99578 14 5.99578V4.21707C14.0001 4.08083 13.9603 3.94744 13.8853 3.83274C13.8103 3.71804 13.7033 3.62686 13.5771 3.57004Z" fill="#F4A100"/>
<path d="M2.46238 11.079C2.01381 11.0422 1.53672 11.0158 1.04146 11.0026C1.02759 11.0031 1.01371 11.0022 1 11C1.70725 11.9333 2.61604 12.6891 3.65631 13.2093C4.69658 13.7294 5.84054 13.9999 7 14L5.70354 12.8148C4.48224 12.5622 3.3576 11.9599 2.46238 11.079V11.079Z" fill="#060839"/>
<path d="M12.7973 10C12.2043 10.9216 11.3572 11.6859 10.3403 12.2169C9.32339 12.7479 8.17188 13.0273 7 13.0274V14C8.45816 13.9993 9.88693 13.626 11.1242 12.9224C12.3615 12.2189 13.3578 11.2132 14 10.0195H13.8613C13.5733 10.0195 13.2107 10.0146 12.7973 10Z" fill="#060839"/>
<path d="M6.74714 0.893537C7.69747 0.893377 8.63596 1.07867 9.49475 1.43602C10.3535 1.79337 11.1112 2.31384 11.7128 2.95979C12.1249 2.98214 12.5548 2.99554 13 3C11.9649 1.58359 10.3464 0.573314 8.48278 0.180335C6.61917 -0.212645 4.65471 0.042093 3 0.891299C3.60816 0.949596 4.21203 1.03835 4.80867 1.15712C5.43541 0.981738 6.08934 0.892819 6.74714 0.893537V0.893537Z" fill="#060839"/>
<path d="M13.4242 7.51769C13.3773 7.50765 13.3295 7.50262 13.2815 7.50271C11.8089 7.48773 8.4688 7.3279 7.0089 6.25163C5.63054 5.23778 2.57066 5.03801 0.991058 5.00555C0.387237 4.99307 0 5.00555 0 5.00555V6.64868C0.000160784 6.82413 0.0555397 6.99525 0.158582 7.1387C0.261623 7.28216 0.407311 7.39097 0.575769 7.45028C0.66317 7.48136 0.755391 7.4974 0.848364 7.49771C2.38468 7.52269 5.58979 7.69999 7.00889 8.74629C8.32355 9.71519 11.1618 9.94244 12.7873 9.98739C13.3172 10.0049 13.7197 9.99987 13.8981 9.99737C13.9643 9.99487 14 9.99487 14 9.99487V8.21689C14.0005 8.05328 13.9435 7.89447 13.8387 7.76715C13.7338 7.63983 13.5875 7.55175 13.4242 7.51769V7.51769Z" fill="#060839"/>
<path d="M2.06914 10.7189C3.70512 10.8256 5.89149 11.1326 7 12V10.049C6.99986 9.80654 6.9323 9.56941 6.80559 9.36654C6.67888 9.16368 6.4985 9.00386 6.28648 8.90662C4.65305 8.14863 2.03859 8.01785 0.756822 8.00184C0.290475 7.9965 0 8.0045 0 8.0045V9.43509C0.000256942 9.67611 0.0673399 9.91186 0.193094 10.1137C0.318848 10.3155 0.497861 10.4748 0.708386 10.5721C0.850387 10.6357 1.0025 10.671 1.15688 10.6762C1.42953 10.6842 1.73786 10.6975 2.06914 10.7189Z" fill="#060839"/>
</svg>
