<svg width="56" height="19" viewBox="0 0 56 19" fill="none" xmlns="http://www.w3.org/2000/svg">
<path d="M17.0998 3.1394H21.6793V4.69143H17.9869V6.14259H20.8837V7.69462H17.9869V10.7482H16.1436V4.09564C16.1436 3.84203 16.2443 3.59881 16.4236 3.41948C16.603 3.24015 16.8462 3.1394 17.0998 3.1394V3.1394Z" fill="#060839"/>
<path d="M24.6609 3.1394H26.1954L29.2042 10.7482H27.232L26.7165 9.35309H23.4948L22.9793 10.7482H21.0071L23.7714 3.74457C23.8418 3.56611 23.9643 3.41297 24.123 3.30505C24.2816 3.19712 24.469 3.13941 24.6609 3.1394V3.1394ZM24.0215 7.91874H26.1898L25.1084 4.98278L24.0215 7.91874Z" fill="#060839"/>
<path d="M35.799 10.7482H30.0952V4.09564C30.0952 3.84203 30.196 3.59881 30.3753 3.41948C30.5546 3.24015 30.7978 3.1394 31.0515 3.1394H31.9386V9.20181H35.799L35.799 10.7482Z" fill="#060839"/>
<path d="M40.3437 3.1394H41.8783L44.8871 10.7482H42.9148L42.3994 9.35309H39.1777L38.6622 10.7482H36.6899L39.4543 3.74457C39.5247 3.56611 39.6472 3.41297 39.8058 3.30505C39.9645 3.19712 40.1519 3.13941 40.3437 3.1394ZM39.7043 7.91874H41.8727L40.7913 4.98278L39.7043 7.91874Z" fill="#060839"/>
<path d="M16.6121 12.8799H19.9398V13.3406H16.6719V15.4396H19.4919V15.9047H16.6719V18.2127H20.0337V18.6735H16.1599V13.3321C16.1599 13.2122 16.2076 13.0971 16.2924 13.0123C16.3772 12.9275 16.4922 12.8799 16.6121 12.8799V12.8799Z" fill="#060839"/>
<path d="M20.8142 16.6299C20.8142 15.4268 21.7059 14.4925 22.8876 14.4925C23.6641 14.4925 24.2784 14.8764 24.5856 15.3671V13.1187C24.5856 12.9988 24.6332 12.8838 24.718 12.799C24.8028 12.7141 24.9179 12.6665 25.0378 12.6665H25.0975V18.6734H24.5856V17.8969C24.2741 18.3833 23.6598 18.7587 22.8876 18.7587C21.7059 18.7587 20.8142 17.8287 20.8142 16.6299ZM21.3176 16.6299C21.3176 17.5642 22.0045 18.2894 22.9217 18.2894C23.8859 18.2894 24.6112 17.5642 24.6112 16.6299C24.6112 15.687 23.8859 14.9618 22.9217 14.9618C22.0045 14.9618 21.3176 15.687 21.3176 16.6299V16.6299Z" fill="#060839"/>
<path d="M26.4714 17.0779V15.0301C26.4714 14.9707 26.4831 14.9119 26.5059 14.857C26.5286 14.8022 26.5619 14.7523 26.6039 14.7103C26.6459 14.6683 26.6957 14.635 26.7506 14.6123C26.8055 14.5896 26.8643 14.5779 26.9237 14.5779H26.9834V16.9243C26.9834 17.8416 27.4399 18.281 28.2761 18.281C28.4589 18.2857 28.6407 18.2532 28.8106 18.1854C28.9804 18.1176 29.1347 18.016 29.264 17.8867C29.3933 17.7574 29.495 17.6031 29.5628 17.4332C29.6306 17.2634 29.6631 17.0815 29.6583 16.8987V14.5779H30.1703V18.6735H29.6583V17.961C29.3384 18.5156 28.7624 18.7588 28.195 18.7588C27.1754 18.7588 26.4714 18.1871 26.4714 17.0779Z" fill="#060839"/>
<path d="M31.2969 16.6257C31.2969 15.4184 32.2525 14.4926 33.5111 14.4926C33.875 14.4854 34.234 14.5767 34.5503 14.757C34.8665 14.9372 35.128 15.1997 35.3072 15.5165L34.9104 15.7725C34.7647 15.5304 34.5599 15.3293 34.3151 15.1883C34.0703 15.0472 33.7936 14.9708 33.5111 14.9661C32.5341 14.9661 31.8131 15.6914 31.8131 16.6257C31.8081 16.8454 31.8476 17.0638 31.9291 17.2679C32.0107 17.472 32.1326 17.6575 32.2876 17.8133C32.4426 17.969 32.6274 18.0919 32.8311 18.1745C33.0347 18.2571 33.253 18.2977 33.4727 18.2938C33.7582 18.2894 34.0381 18.2137 34.2869 18.0737C34.5358 17.9336 34.7457 17.7336 34.8976 17.4918L35.2986 17.7435C34.9488 18.3536 34.2363 18.7589 33.4727 18.7589C32.2269 18.7589 31.2969 17.8203 31.2969 16.6257Z" fill="#060839"/>
<path d="M37.8496 16.2459C38.3232 16.2459 38.8351 16.3739 39.1423 16.5701V16.1861C39.1423 15.4182 38.6261 14.9617 37.8453 14.9617C37.5899 14.9692 37.3391 15.0318 37.1101 15.1452C36.8812 15.2586 36.6793 15.4201 36.5185 15.6187L36.5169 15.6171C36.471 15.5708 36.4357 15.5152 36.4131 15.4541C36.3906 15.3929 36.3815 15.3277 36.3864 15.2627C36.3913 15.1977 36.41 15.1346 36.4414 15.0775C36.4728 15.0204 36.5161 14.9707 36.5683 14.9318C36.9341 14.652 37.3806 14.4979 37.8411 14.4924C38.9332 14.4924 39.65 15.1324 39.65 16.1136V18.6734H39.1551V17.931C38.9119 18.4259 38.3445 18.7587 37.6363 18.7587C36.7532 18.7587 36.0791 18.2894 36.0791 17.5343C36.0791 16.8005 36.8044 16.2459 37.8496 16.2459ZM36.5911 17.5087C36.5911 18.0334 37.0092 18.3363 37.7174 18.3363C38.5322 18.3363 39.138 17.6793 39.1423 16.9925C38.8991 16.7962 38.3573 16.6512 37.8581 16.6512C37.0945 16.6512 36.5911 16.9925 36.5911 17.5087Z" fill="#060839"/>
<path d="M41.2667 14.5777V13.7159C41.2667 13.596 41.3143 13.4809 41.3992 13.3961C41.484 13.3113 41.599 13.2637 41.7189 13.2637H41.7872V14.5777H43.2292V15.0299H41.7872V17.4062C41.7872 18.0462 42.1114 18.2979 42.5295 18.2979C42.7849 18.2943 43.0366 18.2362 43.2676 18.1272L43.3358 18.5666C43.078 18.6967 42.7926 18.7626 42.5039 18.7586C41.7829 18.7586 41.271 18.3661 41.271 17.5299V15.0299H40.4902C40.4902 14.9705 40.5019 14.9117 40.5247 14.8568C40.5474 14.802 40.5807 14.7521 40.6227 14.7101C40.6647 14.6681 40.7145 14.6348 40.7694 14.6121C40.8243 14.5894 40.8831 14.5777 40.9425 14.5777L41.2667 14.5777Z" fill="#060839"/>
<path d="M44.5221 12.8841C44.5645 12.8835 44.6066 12.8914 44.6459 12.9072C44.6852 12.923 44.721 12.9465 44.7511 12.9763C44.7813 13.006 44.8053 13.0415 44.8216 13.0806C44.8379 13.1197 44.8464 13.1617 44.8464 13.204C44.8464 13.2464 44.8379 13.2884 44.8216 13.3275C44.8053 13.3666 44.7813 13.402 44.7511 13.4318C44.721 13.4616 44.6852 13.4851 44.6459 13.5009C44.6066 13.5167 44.5645 13.5246 44.5221 13.524C44.4373 13.524 44.3559 13.4903 44.2959 13.4303C44.2359 13.3703 44.2021 13.2889 44.2021 13.204C44.2021 13.1192 44.2359 13.0378 44.2959 12.9778C44.3559 12.9178 44.4373 12.8841 44.5221 12.8841V12.8841ZM44.7781 14.5778V18.6734H44.2661V15.03C44.2661 14.9101 44.3138 14.795 44.3986 14.7102C44.4834 14.6254 44.5984 14.5778 44.7184 14.5778H44.7781Z" fill="#060839"/>
<path d="M45.9043 16.6256C45.9043 15.4267 46.8343 14.4924 48.0801 14.4924C49.3258 14.4924 50.2559 15.4267 50.2559 16.6256C50.2559 17.8244 49.3258 18.7587 48.0801 18.7587C46.8343 18.7587 45.9043 17.8244 45.9043 16.6256ZM48.0801 18.2894C48.4092 18.2894 48.7309 18.1918 49.0045 18.009C49.2781 17.8262 49.4913 17.5663 49.6173 17.2623C49.7432 16.9583 49.7762 16.6237 49.712 16.301C49.6478 15.9782 49.4893 15.6817 49.2566 15.4491C49.0239 15.2164 48.7274 15.0579 48.4047 14.9937C48.0819 14.9295 47.7474 14.9624 47.4434 15.0884C47.1393 15.2143 46.8795 15.4276 46.6967 15.7012C46.5138 15.9748 46.4163 16.2965 46.4163 16.6256C46.4122 16.8452 46.4525 17.0633 46.5347 17.267C46.6169 17.4707 46.7393 17.6557 46.8946 17.8111C47.0499 17.9664 47.2349 18.0888 47.4386 18.171C47.6423 18.2532 47.8605 18.2934 48.0801 18.2894V18.2894Z" fill="#060839"/>
<path d="M51.3823 18.6734V15.03C51.3823 14.91 51.43 14.795 51.5148 14.7102C51.5996 14.6254 51.7146 14.5778 51.8345 14.5778H51.8943V15.2902C52.2185 14.7356 52.803 14.4924 53.3789 14.4924C54.4114 14.4924 55.1238 15.0641 55.1238 16.1733V18.6734H54.6119V16.3269C54.6119 15.4097 54.1469 14.9703 53.2979 14.9703C52.5172 14.9703 51.8943 15.5377 51.8943 16.3525V18.6734H51.3823Z" fill="#060839"/>
<path d="M13.1755 3.71497C13.0887 3.67396 12.9942 3.65196 12.8982 3.65042C12.652 3.64803 12.3483 3.64086 12.0089 3.62652C10.4526 3.55241 8.13854 3.29901 7.01255 2.45273C6.40057 1.99373 5.43476 1.70925 4.43072 1.53474C3.91434 1.4439 3.38839 1.38175 2.89594 1.33871C2.07783 1.27088 1.25681 1.24455 0.436035 1.25982V2.83284C0.436005 2.98865 0.480557 3.14122 0.564429 3.27253C0.6483 3.40385 0.767991 3.50842 0.909371 3.57392C1.0112 3.61873 1.12084 3.6431 1.23207 3.64563C1.44725 3.64802 1.69825 3.6552 1.97318 3.66715C3.53424 3.73887 5.87941 3.99227 7.01255 4.84332C8.40386 5.88802 11.6168 6.02906 12.9627 6.03862C13.3405 6.04341 13.5724 6.03623 13.5724 6.03623V4.33413C13.5724 4.20376 13.5351 4.07611 13.4647 3.96635C13.3944 3.85659 13.294 3.76934 13.1755 3.71497Z" fill="#F4A100"/>
<path d="M2.81873 11.3256C2.40516 11.2922 1.9653 11.2682 1.50869 11.2563C1.4959 11.2567 1.4831 11.2559 1.47046 11.2539C2.12252 12.101 2.9604 12.787 3.91949 13.2591C4.87859 13.7312 5.93329 13.9767 7.00228 13.9768L5.80698 12.901C4.68098 12.6718 3.6441 12.1251 2.81873 11.3256V11.3256Z" fill="#060839"/>
<path d="M12.1996 10.0442C11.6679 10.9503 10.9086 11.7016 9.99695 12.2237C9.0853 12.7458 8.053 13.0205 7.00244 13.0205V13.9767C8.30964 13.9761 9.5905 13.6091 10.6997 12.9173C11.8089 12.2256 12.702 11.2369 13.2778 10.0633H13.1534C12.8953 10.0633 12.5702 10.0585 12.1996 10.0442Z" fill="#060839"/>
<path d="M7.00279 0.956261C7.89586 0.95609 8.7778 1.15439 9.58484 1.53683C10.3919 1.91926 11.1038 2.47627 11.6692 3.16756C12.0565 3.19148 12.4605 3.20582 12.8789 3.21059C11.9061 1.69476 10.3852 0.613559 8.63384 0.192994C6.88253 -0.227572 5.03644 0.0450478 3.48145 0.953865C4.05296 1.01625 4.62044 1.11124 5.18113 1.23835C5.7701 1.05065 6.38463 0.955493 7.00279 0.956261V0.956261Z" fill="#060839"/>
<path d="M13.0321 7.24839C12.9881 7.23877 12.9432 7.23396 12.8982 7.23404C11.5164 7.2197 8.38238 7.0667 7.01255 6.03635C5.71922 5.06577 2.84811 4.87452 1.36595 4.84345C0.799383 4.8315 0.436035 4.84345 0.436035 4.84345V6.41646C0.436186 6.58442 0.488149 6.74824 0.584834 6.88557C0.681519 7.02291 0.818219 7.12707 0.976285 7.18385C1.05829 7.2136 1.14483 7.22896 1.23206 7.22926C2.6736 7.25317 5.68099 7.42291 7.01254 8.42456C8.2461 9.35211 10.9092 9.56966 12.4344 9.61269C12.9317 9.62943 13.3094 9.62464 13.4767 9.62225C13.5389 9.61986 13.5724 9.61986 13.5724 9.61986V7.91775C13.5728 7.76111 13.5194 7.60909 13.421 7.4872C13.3226 7.36532 13.1853 7.28099 13.0321 7.24839V7.24839Z" fill="#060839"/>
<path d="M2.37718 10.8559C3.91195 10.9515 5.96307 11.2265 7.003 12.0034V10.2559C7.00287 10.0388 6.93949 9.82636 6.82062 9.64465C6.70175 9.46295 6.53252 9.3198 6.33363 9.2327C4.80124 8.55378 2.34852 8.43664 1.14604 8.4223C0.708541 8.41752 0.436035 8.42468 0.436035 8.42468V9.70605C0.436276 9.92193 0.499209 10.1331 0.617184 10.3139C0.735159 10.4947 0.903097 10.6373 1.1006 10.7244C1.23382 10.7815 1.37651 10.8131 1.52135 10.8177C1.77713 10.8248 2.06639 10.8368 2.37718 10.8559Z" fill="#060839"/>
</svg>
